HIERARCHY
ROOT Hips
{
	OFFSET 0.000000 0.000000 0.000000 
	CHANNELS 6 Xposition Yposition Zposition Zrotation Yrotation Xrotation
	JOINT LeftUpLeg
	{
		OFFSET 1.363060 -1.794630 0.839290 
		CHANNELS 3 Zrotation Yrotation Xrotation
		JOINT LeftLeg
		{
			OFFSET 2.448110 -6.726130 0.000000 
			CHANNELS 3 Zrotation Yrotation Xrotation
			JOINT LeftFoot
			{
				OFFSET 2.562200 -7.039590 0.000000 
				CHANNELS 3 Zrotation Yrotation Xrotation
				JOINT LeftToeBase
				{
					OFFSET 0.157640 -0.433110 2.322550 
					CHANNELS 3 Zrotation Yrotation Xrotation
					End Site
					{
						OFFSET 0.000000 0.000000 0.000000 
					}
				}
			}
		}
	}
	JOINT RightUpLeg
	{
		OFFSET -1.305520 -1.794630 0.839290 
		CHANNELS 3 Zrotation Yrotation Xrotation
		JOINT RightLeg
		{
			OFFSET -2.542530 -6.985550 0.000000 
			CHANNELS 3 Zrotation Yrotation Xrotation
			JOINT RightFoot
			{
				OFFSET -2.568260 -7.056230 0.000000 
				CHANNELS 3 Zrotation Yrotation Xrotation
				JOINT RightToeBase
				{
					OFFSET -0.164730 -0.452590 2.363150 
					CHANNELS 3 Zrotation Yrotation Xrotation
					End Site
					{
						OFFSET 0.000000 0.000000 0.000000 
					}
				}
			}
		}
	}
	JOINT Spine
	{
		OFFSET 0.028270 2.035590 -0.193380 
		CHANNELS 3 Zrotation Yrotation Xrotation
		JOINT Spine1
		{
			OFFSET 0.056720 2.048850 -0.042750 
			CHANNELS 3 Zrotation Yrotation Xrotation
			JOINT Neck1
			{
				OFFSET -0.054170 1.746240 0.172020 
				CHANNELS 3 Zrotation Yrotation Xrotation
				JOINT Head
				{
					OFFSET 0.104070 1.761360 -0.123970 
					CHANNELS 3 Zrotation Yrotation Xrotation
					End Site
					{
						OFFSET 0.000000 0.000000 0.000000 
					}
				}
			}
			JOINT LeftArm
			{
				OFFSET 3.362410 1.200890 -0.311210 
				CHANNELS 3 Zrotation Yrotation Xrotation
				JOINT LeftForeArm
				{
					OFFSET 4.983000 -0.000000 -0.000000 
					CHANNELS 3 Zrotation Yrotation Xrotation
					JOINT LeftHand
					{
						OFFSET 3.483560 -0.000000 -0.000000 
						CHANNELS 3 Zrotation Yrotation Xrotation
						JOINT LeftHandIndex1
						{
							OFFSET 0.715260 -0.000000 -0.000000 
							CHANNELS 3 Zrotation Yrotation Xrotation
							End Site
							{
								OFFSET 0.000000 0.000000 0.000000 
							}
						}
					}
				}
			}
			JOINT RightArm
			{
				OFFSET -3.136600 1.374050 -0.404650 
				CHANNELS 3 Zrotation Yrotation Xrotation
				JOINT RightForeArm
				{
					OFFSET -5.241900 -0.000000 -0.000000 
					CHANNELS 3 Zrotation Yrotation Xrotation
					JOINT RightHand
					{
						OFFSET -3.444170 -0.000000 -0.000000 
						CHANNELS 3 Zrotation Yrotation Xrotation
						JOINT RightHandIndex1
						{
							OFFSET -0.622530 -0.000000 -0.000000 
							CHANNELS 3 Zrotation Yrotation Xrotation
							End Site
							{
								OFFSET 0.000000 0.000000 0.000000 
							}
						}
					}
				}
			}
		}
	}
}
MOTION
Frames: 7
Frame Time: 0.041667
8.120373 15.573091 -22.693726 3.984431 -24.755910 27.182137 9.550885 5.076953 -30.234927 2.648339 11.091697 27.672172 -2.932027 12.925617 14.630712 5.396200 -13.816600 -42.507500 -14.196356 15.954530 -71.352559 -12.052757 -22.720790 64.803255 -4.143390 8.736361 -3.008765 -2.026500 8.921100 -25.548900 1.762292 -0.775242 -0.967963 4.549216 -3.194306 1.470038 1.134254 12.553561 4.096745 -13.866900 4.062400 -2.644000 -10.037468 -19.892284 49.262218 10.408298 -17.000462 -3.087270 -0.562327 -7.290069 14.580973 -7.125000 0.000000 0.000000 -42.739653 33.208587 -20.583481 -66.748891 56.694613 -54.004950 -0.546529 6.167199 -33.528484 7.125000 0.000000 0.000000 
8.148292 15.552370 -22.706486 3.748229 -24.649548 27.041823 9.722672 5.048856 -30.353712 2.772875 11.299152 28.291636 -2.637964 12.290465 14.250769 5.339600 -13.756300 -42.270000 -14.153444 16.151614 -71.184294 -12.104255 -22.748602 64.957392 -4.057260 8.407711 -3.164344 -2.120800 9.113400 -26.150700 1.788304 -0.616975 -0.952170 5.053539 -3.195739 1.082079 1.135196 12.700859 4.019298 -14.061600 4.089600 -2.638900 -9.590479 -20.431155 45.165497 9.392715 -15.994595 -2.510731 -2.002413 -6.435247 17.999598 -7.125000 0.000000 0.000000 -41.393049 32.889318 -19.346908 -71.092731 58.543691 -58.300710 -0.576962 6.298168 -33.724937 7.125000 0.000000 0.000000 
8.182427 15.527395 -22.721645 3.349521 -24.444686 27.100153 10.047688 4.939517 -30.545237 2.916345 11.518798 28.936002 -2.250334 11.489377 13.882416 5.258900 -13.669600 -41.929700 -13.946946 16.269409 -71.129263 -12.131775 -22.763046 65.059007 -4.034664 8.303349 -3.292190 -2.113400 9.098400 -26.103700 1.817173 -0.446094 -0.929436 5.507558 -3.161438 0.723388 1.201536 12.824041 3.937724 -14.091700 4.107500 -2.648000 -8.994455 -20.935491 39.923213 8.378948 -15.193066 -2.138121 -2.973178 -5.492836 21.166192 -7.125000 0.000000 0.000000 -39.723833 32.406690 -18.201990 -75.785575 60.550105 -62.714265 -0.665092 6.389326 -33.739928 7.125000 0.000000 0.000000 
8.237720 15.490643 -22.737240 2.986779 -24.439708 27.336523 10.275783 4.826308 -30.907719 3.091628 11.780449 29.652045 -2.192716 11.248847 13.355726 5.331200 -13.747300 -42.234500 -13.906549 16.260939 -71.458502 -12.152198 -22.762880 65.126322 -4.066704 8.429320 -3.323381 -2.266600 9.400700 -27.057000 1.829305 -0.269029 -0.924013 5.895114 -3.076271 0.315832 1.309273 12.722514 3.912711 -14.026900 4.051200 -2.675700 -8.261722 -21.312020 34.456457 7.562304 -14.656922 -1.949278 -3.650839 -4.714712 23.053744 -7.125000 0.000000 0.000000 -38.058993 31.719445 -17.087669 -80.618622 62.549831 -66.861886 -0.826412 6.424830 -33.753651 7.125000 0.000000 0.000000 
8.284615 15.458798 -22.751418 2.862973 -24.432545 27.379324 10.365875 4.649531 -31.247421 3.267403 12.059653 30.388384 -2.419798 11.494312 12.645782 5.596300 -14.025400 -43.339200 -14.048237 16.220499 -71.668876 -12.202028 -22.763180 65.247327 -4.022257 8.287070 -3.387880 -2.528600 9.889800 -28.620500 1.844892 -0.141799 -0.914594 6.328387 -3.036955 -0.050978 1.373356 12.547205 3.905857 -14.078600 3.955800 -2.639700 -7.638372 -21.864895 28.400814 6.659740 -14.052468 -1.785963 -4.309411 -3.929130 24.389998 -7.125000 0.000000 0.000000 -36.746096 31.095991 -16.154631 -85.268614 64.268094 -70.385490 -1.028774 6.386607 -33.901740 7.125000 0.000000 0.000000 
8.333146 15.427607 -22.766250 2.706533 -24.366003 27.464674 10.507632 4.438833 -31.588137 3.436512 12.338347 31.154217 -2.472404 11.410149 11.814097 5.717100 -14.148500 -43.835600 -14.165365 16.191350 -71.857250 -12.249552 -22.766844 65.369003 -3.892910 7.834925 -3.545326 -2.674300 10.148100 -29.457700 1.866805 -0.033308 -0.887245 6.479223 -2.931991 -0.536062 1.446422 12.514513 3.841064 -14.196100 3.891400 -2.622500 -7.153780 -22.563027 21.418929 5.628942 -13.380165 -1.665293 -5.170223 -3.057857 25.993219 -7.125000 0.000000 0.000000 -33.996659 29.736041 -14.523528 -92.629479 66.290549 -75.429005 -1.515224 6.339126 -34.114333 7.125000 0.000000 0.000000 
8.377205 15.400888 -22.777374 2.415146 -24.259820 27.525942 10.751819 4.241093 -31.823335 3.573144 12.570154 31.892198 -1.880299 10.203601 11.257942 5.328900 -13.744800 -42.224800 -14.156117 16.276781 -71.897363 -12.282957 -22.779326 65.468690 -3.836795 7.640806 -3.632548 -2.617100 10.047800 -29.131700 1.868673 0.084875 -0.857031 6.537966 -2.892785 -0.704476 1.529824 12.473838 3.782750 -14.281100 3.826900 -2.594400 -6.646090 -23.377207 14.098662 4.778742 -12.808213 -1.666335 -6.020796 -2.252473 27.691824 -7.125000 0.000000 0.000000 -33.323832 29.391769 -13.734660 -96.204240 66.841655 -77.480827 -1.793558 6.257343 -34.702631 7.125000 0.000000 0.000000 
